HIERARCHY
ROOT Hips
{
	OFFSET 0.717293 88.513641 3.606412
	CHANNELS 6 Xposition Yposition Zposition Zrotation Yrotation Xrotation 
	JOINT Spine
	{
		OFFSET -0.000000 8.814246 -2.080107
		CHANNELS 3 Zrotation Yrotation Xrotation
		JOINT Spine1
		{
			OFFSET -0.000000 8.844141 -0.000000
			CHANNELS 3 Zrotation Yrotation Xrotation
			JOINT Spine2
			{
				OFFSET 0.000000 11.682268 0.000000
				CHANNELS 3 Zrotation Yrotation Xrotation
				JOINT Spine3
				{
					OFFSET 0.000000 11.746700 -0.000000
					CHANNELS 3 Zrotation Yrotation Xrotation
					JOINT Neck
					{
						OFFSET 0.000000 17.658264 0.000000
						CHANNELS 3 Zrotation Yrotation Xrotation
						JOINT Neck1
						{
							OFFSET -0.000000 5.101515 -0.000000
							CHANNELS 3 Zrotation Yrotation Xrotation
							JOINT Head
							{
								OFFSET -0.000000 5.101515 -0.000000
								CHANNELS 3 Zrotation Yrotation Xrotation
								JOINT HeadEnd
								{
									OFFSET -0.000000 11.655085 -0.000000
									CHANNELS 3 Zrotation Yrotation Xrotation
									End Site
									{
										OFFSET 0.000000 0.000000 0.000000
									}
								}
							}
						}
					}
					JOINT RightShoulder
					{
						OFFSET -2.625389 11.175210 -0.000000
						CHANNELS 3 Zrotation Yrotation Xrotation
						JOINT RightArm
						{
							OFFSET 0.000000 10.434715 0.000000
							CHANNELS 3 Zrotation Yrotation Xrotation
							JOINT RightForeArm
							{
								OFFSET 0.000000 29.628420 0.000000
								CHANNELS 3 Zrotation Yrotation Xrotation
								JOINT RightHand
								{
									OFFSET 0.000000 22.857611 -0.000000
									CHANNELS 3 Zrotation Yrotation Xrotation
									JOINT RightHandThumb1
									{
										OFFSET -2.867323 3.959563 2.944291
										CHANNELS 3 Zrotation Yrotation Xrotation
										JOINT RightHandThumb2
										{
											OFFSET 0.000000 3.350399 -0.000000
											CHANNELS 3 Zrotation Yrotation Xrotation
											JOINT RightHandThumb3
											{
												OFFSET 0.000000 3.756509 -0.000000
												CHANNELS 3 Zrotation Yrotation Xrotation
												JOINT RightHandThumb4
												{
													OFFSET -0.000000 3.147345 -0.000000
													CHANNELS 3 Zrotation Yrotation Xrotation
													End Site
													{
														OFFSET 0.000000 0.000000 0.000000
													}
												}
											}
										}
									}
									JOINT RightHandIndex1
									{
										OFFSET -0.086752 10.030893 2.345280
										CHANNELS 3 Zrotation Yrotation Xrotation
										JOINT RightHandIndex2
										{
											OFFSET -0.000000 4.061090 -0.000000
											CHANNELS 3 Zrotation Yrotation Xrotation
											JOINT RightHandIndex3
											{
												OFFSET -0.000000 3.248873 0.000000
												CHANNELS 3 Zrotation Yrotation Xrotation
												JOINT RightHandIndex4
												{
													OFFSET -0.000000 2.639709 0.000000
													CHANNELS 3 Zrotation Yrotation Xrotation
													End Site
													{
														OFFSET 0.000000 0.000000 0.000000
													}
												}
											}
										}
									}
									JOINT RightHandMiddle1
									{
										OFFSET 0.104102 9.502952 0.006768
										CHANNELS 3 Zrotation Yrotation Xrotation
										JOINT RightHandMiddle2
										{
											OFFSET 0.000000 4.568727 -0.000000
											CHANNELS 3 Zrotation Yrotation Xrotation
											JOINT RightHandMiddle3
											{
												OFFSET 0.000000 3.654981 -0.000000
												CHANNELS 3 Zrotation Yrotation Xrotation
												JOINT RightHandMiddle4
												{
													OFFSET 0.000000 2.741236 0.000000
													CHANNELS 3 Zrotation Yrotation Xrotation
													End Site
													{
														OFFSET 0.000000 0.000000 0.000000
													}
												}
											}
										}
									}
									JOINT RightHandRing1
									{
										OFFSET 0.086752 8.921708 -2.267442
										CHANNELS 3 Zrotation Yrotation Xrotation
										JOINT RightHandRing2
										{
											OFFSET -0.000000 4.061090 -0.000000
											CHANNELS 3 Zrotation Yrotation Xrotation
											JOINT RightHandRing3
											{
												OFFSET -0.000000 3.654981 0.000000
												CHANNELS 3 Zrotation Yrotation Xrotation
												JOINT RightHandRing4
												{
													OFFSET -0.000000 2.741236 0.000000
													CHANNELS 3 Zrotation Yrotation Xrotation
													End Site
													{
														OFFSET 0.000000 0.000000 0.000000
													}
												}
											}
										}
									}
									JOINT RightHandPinky1
									{
										OFFSET -0.173504 7.976997 -4.467199
										CHANNELS 3 Zrotation Yrotation Xrotation
										JOINT RightHandPinky2
										{
											OFFSET -0.000000 3.350399 -0.000000
											CHANNELS 3 Zrotation Yrotation Xrotation
											JOINT RightHandPinky3
											{
												OFFSET -0.000000 2.842763 0.000000
												CHANNELS 3 Zrotation Yrotation Xrotation
												JOINT RightHandPinky4
												{
													OFFSET 0.000000 2.639709 -0.000000
													CHANNELS 3 Zrotation Yrotation Xrotation
													End Site
													{
														OFFSET 0.000000 0.000000 0.000000
													}
												}
											}
										}
									}
									JOINT RightForeArmEnd
									{
										OFFSET 0.000000 0.000000 0.000000
										CHANNELS 3 Zrotation Yrotation Xrotation
										End Site
										{
											OFFSET 0.000000 0.000000 0.000000
										}
									}
								}
								JOINT RightArmEnd
								{
									OFFSET 0.000000 0.000000 0.000000
									CHANNELS 3 Zrotation Yrotation Xrotation
									End Site
									{
										OFFSET 0.000000 0.000000 0.000000
									}
								}
							}
						}
					}
					JOINT LeftShoulder
					{
						OFFSET 2.625389 11.175210 -0.000000
						CHANNELS 3 Zrotation Yrotation Xrotation
						JOINT LeftArm
						{
							OFFSET 0.000000 10.813635 0.000000
							CHANNELS 3 Zrotation Yrotation Xrotation
							JOINT LeftForeArm
							{
								OFFSET -0.000000 28.724781 -0.000000
								CHANNELS 3 Zrotation Yrotation Xrotation
								JOINT LeftHand
								{
									OFFSET 0.644384 25.716167 -0.328871
									CHANNELS 3 Zrotation Yrotation Xrotation
									JOINT LeftHandThumb1
									{
										OFFSET 2.867323 3.959563 2.944291
										CHANNELS 3 Zrotation Yrotation Xrotation
										JOINT LeftHandThumb2
										{
											OFFSET 0.000000 3.350399 0.000000
											CHANNELS 3 Zrotation Yrotation Xrotation
											JOINT LeftHandThumb3
											{
												OFFSET 0.000000 3.756509 0.000000
												CHANNELS 3 Zrotation Yrotation Xrotation
												JOINT LeftHandThumb4
												{
													OFFSET -0.000000 3.100000 0.000000
													CHANNELS 3 Zrotation Yrotation Xrotation
													End Site
													{
														OFFSET 0.000000 0.000000 0.000000
													}
												}
											}
										}
									}
									JOINT LeftHandIndex1
									{
										OFFSET 0.086752 10.030893 2.345280
										CHANNELS 3 Zrotation Yrotation Xrotation
										JOINT LeftHandIndex2
										{
											OFFSET -0.000000 4.061090 -0.000000
											CHANNELS 3 Zrotation Yrotation Xrotation
											JOINT LeftHandIndex3
											{
												OFFSET -0.000000 3.248873 -0.000000
												CHANNELS 3 Zrotation Yrotation Xrotation
												JOINT LeftHandIndex4
												{
													OFFSET -0.000000 2.639709 -0.000000
													CHANNELS 3 Zrotation Yrotation Xrotation
													End Site
													{
														OFFSET 0.000000 0.000000 0.000000
													}
												}
											}
										}
									}
									JOINT LeftHandMiddle1
									{
										OFFSET -0.104102 9.502952 0.006768
										CHANNELS 3 Zrotation Yrotation Xrotation
										JOINT LeftHandMiddle2
										{
											OFFSET 0.000000 4.568727 -0.000000
											CHANNELS 3 Zrotation Yrotation Xrotation
											JOINT LeftHandMiddle3
											{
												OFFSET 0.000000 3.654981 0.000000
												CHANNELS 3 Zrotation Yrotation Xrotation
												JOINT LeftHandMiddle4
												{
													OFFSET 0.000000 2.741236 0.000000
													CHANNELS 3 Zrotation Yrotation Xrotation
													End Site
													{
														OFFSET 0.000000 0.000000 0.000000
													}
												}
											}
										}
									}
									JOINT LeftHandRing1
									{
										OFFSET -0.086752 8.921708 -2.267442
										CHANNELS 3 Zrotation Yrotation Xrotation
										JOINT LeftHandRing2
										{
											OFFSET -0.000000 4.061090 -0.000000
											CHANNELS 3 Zrotation Yrotation Xrotation
											JOINT LeftHandRing3
											{
												OFFSET 0.000000 3.654981 0.000000
												CHANNELS 3 Zrotation Yrotation Xrotation
												JOINT LeftHandRing4
												{
													OFFSET -0.000000 2.741236 -0.000000
													CHANNELS 3 Zrotation Yrotation Xrotation
													End Site
													{
														OFFSET 0.000000 0.000000 0.000000
													}
												}
											}
										}
									}
									JOINT LeftHandPinky1
									{
										OFFSET 0.173504 7.976997 -4.467199
										CHANNELS 3 Zrotation Yrotation Xrotation
										JOINT LeftHandPinky2
										{
											OFFSET 0.000000 3.350399 -0.000000
											CHANNELS 3 Zrotation Yrotation Xrotation
											JOINT LeftHandPinky3
											{
												OFFSET 0.000000 2.842763 0.000000
												CHANNELS 3 Zrotation Yrotation Xrotation
												JOINT LeftHandPinky4
												{
													OFFSET -0.000000 2.639709 -0.000000
													CHANNELS 3 Zrotation Yrotation Xrotation
													End Site
													{
														OFFSET 0.000000 0.000000 0.000000
													}
												}
											}
										}
									}
									JOINT LeftForeArmEnd
									{
										OFFSET 0.000000 0.000000 0.000000
										CHANNELS 3 Zrotation Yrotation Xrotation
										End Site
										{
											OFFSET 0.000000 0.000000 0.000000
										}
									}
								}
								JOINT LeftArmEnd
								{
									OFFSET 0.000000 0.000000 0.000000
									CHANNELS 3 Zrotation Yrotation Xrotation
									End Site
									{
										OFFSET 0.000000 0.000000 0.000000
									}
								}
							}
						}
					}
				}
			}
		}
	}
	JOINT RightUpLeg
	{
		OFFSET -11.289943 0.000000 -0.000000
		CHANNELS 3 Zrotation Yrotation Xrotation
		JOINT RightLeg
		{
			OFFSET 0.000000 -38.200325 -0.000000
			CHANNELS 3 Zrotation Yrotation Xrotation
			JOINT RightFoot
			{
				OFFSET -0.000000 -39.900856 -0.000000
				CHANNELS 3 Zrotation Yrotation Xrotation
				JOINT RightToeBase
				{
					OFFSET -0.000000 0.000000 15.261641
					CHANNELS 3 Zrotation Yrotation Xrotation
					JOINT RightToeBaseEnd
					{
						OFFSET 0.000000 0.000000 7.370709
						CHANNELS 3 Zrotation Yrotation Xrotation
						End Site
						{
							OFFSET 0.000000 0.000000 0.000000
						}
					}
				}
				JOINT RightLegEnd
				{
					OFFSET 0.000000 0.000000 0.000000
					CHANNELS 3 Zrotation Yrotation Xrotation
					End Site
					{
						OFFSET 0.000000 0.000000 0.000000
					}
				}
			}
			JOINT RightUpLegEnd
			{
				OFFSET 0.000000 0.000000 0.000000
				CHANNELS 3 Zrotation Yrotation Xrotation
				End Site
				{
					OFFSET 0.000000 0.000000 0.000000
				}
			}
		}
	}
	JOINT LeftUpLeg
	{
		OFFSET 11.315661 -0.000000 -0.000000
		CHANNELS 3 Zrotation Yrotation Xrotation
		JOINT LeftLeg
		{
			OFFSET 0.000000 -38.200325 0.000000
			CHANNELS 3 Zrotation Yrotation Xrotation
			JOINT LeftFoot
			{
				OFFSET 0.000000 -39.900856 0.000000
				CHANNELS 3 Zrotation Yrotation Xrotation
				JOINT LeftToeBase
				{
					OFFSET 0.000000 -0.000000 15.261641
					CHANNELS 3 Zrotation Yrotation Xrotation
					JOINT LeftToeBaseEnd
					{
						OFFSET -0.000000 0.000000 7.539996
						CHANNELS 3 Zrotation Yrotation Xrotation
						End Site
						{
							OFFSET 0.000000 0.000000 0.000000
						}
					}
				}
				JOINT LeftLegEnd
				{
					OFFSET 0.000000 0.000000 0.000000
					CHANNELS 3 Zrotation Yrotation Xrotation
					End Site
					{
						OFFSET 0.000000 0.000000 0.000000
					}
				}
			}
			JOINT LeftUpLegEnd
			{
				OFFSET 0.000000 0.000000 0.000000
				CHANNELS 3 Zrotation Yrotation Xrotation
				End Site
				{
					OFFSET 0.000000 0.000000 0.000000
				}
			}
		}
	}
}
MOTION
Frames: 4
Frame Time: 0.016667
0.717293 88.513641 3.606412 -0.807625 -0.145498 -10.211953 2.974575 -0.200603 8.045942 0.343280 -0.161376 3.810282 0.356144 -1.985393 3.162312 -0.570617 -0.651933 1.640799 0.102534 -1.376300 4.726995 -0.786954 -0.955029 -2.695320 -0.607556 -0.996725 -19.207796 0.000000 0.000000 0.000000 90.633385 -0.099940 10.407545 65.336456 -33.843838 4.224480 -0.450088 10.791811 20.358622 7.570276 13.503039 -6.307324 10.937046 -1.865515 39.738762 0.000000 0.000000 -26.639997 0.000000 0.000000 -18.499998 0.000000 0.000000 0.000000 13.612741 0.000000 -9.950699 9.528920 0.000000 0.000000 9.528920 0.000000 0.000000 0.000000 0.000000 0.000000 12.607718 -0.000000 -10.819229 8.825400 0.000000 0.000000 8.825400 0.000000 0.000000 0.000000 0.000000 0.000000 14.150433 -0.000000 -9.929859 9.905301 0.000000 0.000000 9.905301 0.000000 0.000000 0.000000 0.000000 0.000000 14.986264 0.000000 -10.561732 10.490384 0.000000 0.000000 10.490384 0.000000 0.000000 0.000000 0.000000 0.000000 0.000000 0.000000 0.000000 0.000000 0.000000 0.000000 -87.418159 -0.270548 6.233880 -75.998817 26.272923 -6.204398 -0.339548 -5.544444 38.662571 0.678041 -17.794977 -13.609646 -10.637670 1.840800 39.870983 0.000000 0.000000 -25.919998 0.000000 0.000000 -18.000004 0.000000 0.000000 0.000000 -12.784686 -0.000000 -9.414296 -8.949280 0.000000 0.000000 -8.949280 0.000000 0.000000 0.000000 0.000000 0.000000 -12.048728 -0.000000 -10.392732 -8.434110 0.000000 0.000000 -8.434110 0.000000 0.000000 0.000000 0.000000 0.000000 -13.654737 -0.000000 -11.575627 -9.558316 0.000000 0.000000 -9.558316 0.000000 0.000000 0.000000 0.000000 0.000000 -14.250447 -0.000000 -12.885098 -9.975311 0.000000 0.000000 -9.975311 0.000000 0.000000 0.000000 0.000000 0.000000 0.000000 0.000000 0.000000 0.000000 0.000000 0.000000 1.136141 -14.518364 12.126021 -0.031131 -0.345450 4.775295 -3.873879 -13.260001 19.727701 -0.519588 0.644877 -18.908152 0.000000 0.000000 0.000000 0.000000 0.000000 0.000000 0.000000 0.000000 0.000000 8.610489 -1.127510 2.905101 0.263057 0.928557 15.818080 -1.732145 6.252617 17.146843 1.232856 -0.489963 -24.107113 0.000000 0.000000 0.000000 0.000000 0.000000 0.000000 0.000000 0.000000 0.000000 
0.709234 87.917282 3.350526 -1.269301 -0.327332 -9.608885 3.511568 -0.720970 6.991397 1.353568 -0.523421 4.818504 -0.487585 -1.468565 2.448753 -1.167207 -0.578158 3.782195 -0.385133 -0.438371 3.865621 -0.792535 -0.688320 -3.656223 -0.749609 -0.873499 -18.196148 0.000000 0.000000 0.000000 89.908226 -0.214161 9.724907 65.274620 -31.975147 5.832931 -0.149709 12.982121 20.634512 7.706057 11.498938 -4.901771 10.809273 -1.878403 39.659004 -0.000001 0.000031 -26.424067 0.000006 0.000043 -18.071472 0.000008 -0.000004 -0.000025 13.135380 0.022620 -10.008172 9.123640 -0.049654 0.039389 9.143033 -0.022802 0.019398 -0.000029 0.000046 -0.000035 12.630385 0.015511 -10.985866 8.568740 -0.022594 0.002561 8.656353 -0.003903 0.000572 0.000027 0.000008 0.000007 14.823615 -0.060769 -10.557371 9.712919 0.026330 0.059136 9.698248 -0.004776 0.037232 -0.000018 0.000418 0.000022 15.466531 -0.149717 -11.550282 10.385776 0.025194 0.383152 10.195841 -0.034000 0.307174 0.000342 -0.000005 0.000009 0.000000 0.000000 0.000000 0.000000 0.000000 0.000000 -87.098457 -0.219421 6.888213 -74.484886 25.839773 -5.367312 -0.515586 -9.001072 39.815502 1.455212 -15.357683 -14.011955 -10.395888 1.815596 39.813271 -0.000007 0.000026 -25.528362 -0.000056 -0.000025 -17.578623 -0.000595 -0.000007 0.000349 -13.000923 0.114979 -9.391109 -8.971801 -0.034209 0.026466 -9.189273 -0.007584 0.020292 0.000010 -0.000087 -0.000014 -12.211674 0.048013 -10.305866 -8.669906 -0.024433 0.016834 -8.438839 0.000062 0.020951 -0.000194 -0.000029 -0.000087 -13.675836 -0.015958 -10.929029 -9.704693 0.041803 -0.090869 -9.572031 0.002434 -0.053809 0.000488 0.000009 0.000004 -13.646413 -0.098318 -11.920463 -10.065959 0.047648 -0.225366 -10.073810 -0.018972 -0.202354 0.000056 -0.000013 -0.000031 0.000000 0.000000 0.000000 0.000000 0.000000 0.000000 1.797014 -14.787587 11.568473 0.016917 -0.421907 4.954466 -5.154325 -13.624384 20.196386 -0.767299 0.554039 -18.854965 0.000000 0.000000 0.000000 0.000000 0.000000 0.000000 0.000000 0.000000 0.000000 8.360278 -0.412743 3.732790 0.285389 0.914918 14.838715 -3.143431 6.005126 21.868441 0.809053 -0.449223 -22.982353 0.000000 0.000000 0.000000 0.000000 0.000000 0.000000 0.000000 0.000000 0.000000 
0.628730 87.892105 3.300683 -1.229467 -0.146655 -9.679025 3.511348 -0.719093 6.954134 1.345599 -0.518314 4.907194 -0.544978 -1.449166 2.408037 -1.138456 -0.580493 3.926886 -0.310159 -0.517502 3.930071 -0.797855 -0.747554 -3.570392 -0.758142 -0.870113 -18.242142 0.000000 0.000000 0.000000 89.982590 -0.234637 9.733211 65.122719 -31.728720 5.886508 -0.166258 13.074080 20.809023 7.775950 11.480450 -5.139894 10.776251 -1.876794 39.677773 -0.000008 0.000053 -26.306545 0.000019 0.000036 -17.995596 0.000020 0.000005 -0.000042 13.004211 0.025538 -9.852218 8.991632 -0.051932 0.041715 8.985009 -0.024020 0.023183 -0.000009 0.000061 -0.000025 12.487597 0.015929 -10.872202 8.453571 -0.024279 0.004860 8.532248 -0.004532 0.001978 0.000021 -0.000009 -0.000009 14.662404 -0.063339 -10.472051 9.598255 0.028003 0.050039 9.594003 -0.003012 0.030416 -0.000025 0.000389 0.000002 15.329003 -0.155623 -11.475380 10.324468 0.032020 0.356189 10.128747 -0.029947 0.289764 0.000371 0.000006 0.000014 0.000000 0.000000 0.000000 0.000000 0.000000 0.000000 -87.070282 -0.231813 6.819693 -74.470070 25.722412 -5.233729 -0.506037 -9.031026 39.951923 1.242697 -15.160863 -14.050098 -10.334205 1.802291 39.842346 0.000013 0.000029 -25.391840 -0.000055 -0.000011 -17.481726 -0.000716 0.000005 0.000253 -12.710759 0.121447 -9.380766 -8.867367 -0.034755 0.025244 -9.076581 -0.007859 0.015970 0.000023 -0.000044 -0.000005 -11.907250 0.050373 -10.337264 -8.594852 -0.024878 0.013709 -8.366246 -0.000018 0.020162 -0.000296 -0.000020 -0.000107 -13.408263 -0.015978 -11.030508 -9.644537 0.042117 -0.088818 -9.514341 0.002638 -0.052101 0.000517 0.000015 0.000010 -13.434464 -0.099605 -12.054685 -10.043953 0.046875 -0.218324 -10.070354 -0.019372 -0.195687 0.000069 0.000010 -0.000052 0.000000 0.000000 0.000000 0.000000 0.000000 0.000000 1.810942 -14.999020 11.530265 0.016226 -0.411194 4.939111 -5.312151 -13.627488 20.168688 -0.748872 0.534628 -18.876379 0.000000 0.000000 0.000000 0.000000 0.000000 0.000000 0.000000 0.000000 0.000000 8.504190 -0.422541 3.532482 0.292912 0.931206 14.927894 -3.240309 5.763534 21.945982 0.821143 -0.464114 -23.073917 0.000000 0.000000 0.000000 0.000000 0.000000 0.000000 0.000000 0.000000 0.000000 
0.565705 87.875282 3.258940 -1.164121 0.026429 -9.733862 3.497387 -0.706522 6.939773 1.354174 -0.517450 4.920979 -0.618569 -1.375678 2.432560 -1.122040 -0.566782 4.007240 -0.292614 -0.555600 3.951144 -0.802854 -0.796992 -3.513692 -0.752793 -0.865683 -18.299397 0.000000 0.000000 0.000000 90.004272 -0.225468 9.790890 65.199112 -31.307646 5.743982 -0.187071 13.286641 21.258472 7.564897 11.415688 -5.301643 10.749006 -1.876072 39.692425 -0.000008 0.000052 -26.211981 0.000018 0.000037 -17.934502 0.000020 0.000005 -0.000042 12.836701 0.026681 -9.741144 8.872531 -0.053468 0.042822 8.841592 -0.024484 0.025274 -0.000010 0.000061 -0.000025 12.322384 0.015473 -10.807506 8.352415 -0.025179 0.006296 8.429210 -0.004921 0.002760 0.000021 -0.000007 -0.000008 14.511698 -0.064506 -10.461476 9.497054 0.028596 0.043442 9.500142 -0.002024 0.025538 -0.000023 0.000452 0.000002 15.193747 -0.156317 -11.504797 10.257253 0.035829 0.339568 10.061804 -0.029044 0.278116 0.000406 0.000006 0.000007 0.000000 0.000000 0.000000 0.000000 0.000000 0.000000 -87.002068 -0.236533 6.786343 -74.476578 25.590525 -5.136203 -0.488478 -9.084778 40.145809 1.242277 -14.956155 -13.975252 -10.290645 1.794894 39.861977 0.000013 0.000029 -25.302294 -0.000052 -0.000012 -17.414516 -0.000757 0.000004 0.000219 -12.488604 0.123042 -9.266294 -8.764459 -0.035381 0.023327 -8.965297 -0.008314 0.011780 0.000020 0.000009 -0.000005 -11.683277 0.050916 -10.272292 -8.517286 -0.025577 0.010653 -8.292954 -0.000222 0.019153 -0.000382 -0.000019 -0.000119 -13.211992 -0.014521 -11.046527 -9.577391 0.042597 -0.086281 -9.456143 0.002745 -0.049731 0.000525 0.000014 0.000010 -13.297314 -0.100499 -12.120144 -10.005453 0.046761 -0.211050 -10.046371 -0.019894 -0.185840 0.000056 0.000010 -0.000052 0.000000 0.000000 0.000000 0.000000 0.000000 0.000000 1.785602 -15.168193 11.508054 0.016646 -0.402350 4.921030 -5.441616 -13.662231 20.150948 -0.740616 0.519178 -18.887465 0.000000 0.000000 0.000000 0.000000 0.000000 0.000000 0.000000 0.000000 0.000000 8.566037 -0.460944 3.404552 0.296979 0.941927 14.951483 -3.308156 5.572804 22.012911 0.829375 -0.476749 -23.142456 0.000000 0.000000 0.000000 0.000000 0.000000 0.000000 0.000000 0.000000 0.000000 
